<svg xmlns="http://www.w3.org/2000/svg" viewBox="0 0 200 200">
  <g fill="#f7ebd2">
    <path opacity=".58" transform="matrix(1.2667 0 0 1.2667 12 -3.2)" d="M24.578 15.262c0 9.285-.09 8.55-.164 17.836-.07 8.699-.156 18.652-.262 29.859-.02 2.113-.066 4.23-.062 6.348.777-.086 1.55-.172 2.328-.258-.031-4.852-1.102-10.922-3.672-15.078-1.625-2.63-4.043-5.3-7.121-6.176-2.137-.605-4.816-.004-5.91 2.102-.64 1.23-.02 2.29 1.039 3 1.582 1.063 3.637 1.492 5.469 1.86 2.719.542 5.484.851 8.242 1.09 6.313.546 12.66.69 18.992.714 3.797.016 2.027-.012 5.824-.129.469-.015 1.316-.137 1.523-.656.184-.465-.16-.785-.652-.77-8.324.262-11.121.219-19.441-.218-5.066-.266-10.336-.52-15.25-1.887-1.172-.324-2.856-.766-3.516-1.812-.445-.703.176-1.906 1.035-2.086.914-.191 2.23.477 3.07 1.008 1.5.953 2.742 2.3 3.773 3.734 2.965 4.113 4.234 10.543 4.266 15.563.008 1.039 2.332.582 2.328-.258-.016-5.867.113-12.992.164-18.855.098-10.898.191-10.523.262-21.418.031-4.59.063-9.18.063-13.77 0-1.039-2.328-.586-2.328.258Z"/>
    <path opacity=".74" transform="matrix(-1.2667 0 0 1.2667 188 -3.2)" d="M24.578 15.262c0 9.285-.09 8.55-.164 17.836-.07 8.699-.156 18.652-.262 29.859-.02 2.113-.066 4.23-.062 6.348.777-.086 1.55-.172 2.328-.258-.031-4.852-1.102-10.922-3.672-15.078-1.625-2.63-4.043-5.3-7.121-6.176-2.137-.605-4.816-.004-5.91 2.102-.64 1.23-.02 2.29 1.039 3 1.582 1.063 3.637 1.492 5.469 1.86 2.719.542 5.484.851 8.242 1.09 6.313.546 12.66.69 18.992.714 3.797.016 2.027-.012 5.824-.129.469-.015 1.316-.137 1.523-.656.184-.465-.16-.785-.652-.77-8.324.262-11.121.219-19.441-.218-5.066-.266-10.336-.52-15.25-1.887-1.172-.324-2.856-.766-3.516-1.812-.445-.703.176-1.906 1.035-2.086.914-.191 2.23.477 3.07 1.008 1.5.953 2.742 2.3 3.773 3.734 2.965 4.113 4.234 10.543 4.266 15.563.008 1.039 2.332.582 2.328-.258-.016-5.867.113-12.992.164-18.855.098-10.898.191-10.523.262-21.418.031-4.59.063-9.18.063-13.77 0-1.039-2.328-.586-2.328.258Z"/>
    <path opacity=".44" transform="matrix(-1.2667 0 0 1.2667 88 96.8)" d="M24.578 15.262c0 9.285-.09 8.55-.164 17.836-.07 8.699-.156 18.652-.262 29.859-.02 2.113-.066 4.23-.062 6.348.777-.086 1.55-.172 2.328-.258-.031-4.852-1.102-10.922-3.672-15.078-1.625-2.63-4.043-5.3-7.121-6.176-2.137-.605-4.816-.004-5.91 2.102-.64 1.23-.02 2.29 1.039 3 1.582 1.063 3.637 1.492 5.469 1.86 2.719.542 5.484.851 8.242 1.09 6.313.546 12.66.69 18.992.714 3.797.016 2.027-.012 5.824-.129.469-.015 1.316-.137 1.523-.656.184-.465-.16-.785-.652-.77-8.324.262-11.121.219-19.441-.218-5.066-.266-10.336-.52-15.25-1.887-1.172-.324-2.856-.766-3.516-1.812-.445-.703.176-1.906 1.035-2.086.914-.191 2.23.477 3.07 1.008 1.5.953 2.742 2.3 3.773 3.734 2.965 4.113 4.234 10.543 4.266 15.563.008 1.039 2.332.582 2.328-.258-.016-5.867.113-12.992.164-18.855.098-10.898.191-10.523.262-21.418.031-4.59.063-9.18.063-13.77 0-1.039-2.328-.586-2.328.258Z"/>
    <path opacity=".62" transform="matrix(1.2667 0 0 1.2667 112 96.8)" d="M24.578 15.262c0 9.285-.09 8.55-.164 17.836-.07 8.699-.156 18.652-.262 29.859-.02 2.113-.066 4.23-.062 6.348.777-.086 1.55-.172 2.328-.258-.031-4.852-1.102-10.922-3.672-15.078-1.625-2.63-4.043-5.3-7.121-6.176-2.137-.605-4.816-.004-5.91 2.102-.64 1.23-.02 2.29 1.039 3 1.582 1.063 3.637 1.492 5.469 1.86 2.719.542 5.484.851 8.242 1.09 6.313.546 12.66.69 18.992.714 3.797.016 2.027-.012 5.824-.129.469-.015 1.316-.137 1.523-.656.184-.465-.16-.785-.652-.77-8.324.262-11.121.219-19.441-.218-5.066-.266-10.336-.52-15.25-1.887-1.172-.324-2.856-.766-3.516-1.812-.445-.703.176-1.906 1.035-2.086.914-.191 2.23.477 3.07 1.008 1.5.953 2.742 2.3 3.773 3.734 2.965 4.113 4.234 10.543 4.266 15.563.008 1.039 2.332.582 2.328-.258-.016-5.867.113-12.992.164-18.855.098-10.898.191-10.523.262-21.418.031-4.59.063-9.18.063-13.77 0-1.039-2.328-.586-2.328.258Z"/>
  </g>
</svg>
